<svg xmlns="http://www.w3.org/2000/svg" xmlns:xlink="http://www.w3.org/1999/xlink" width="500" zoomAndPan="magnify" viewBox="0 0 375 374.999991" height="500" preserveAspectRatio="xMidYMid meet" version="1.0"><defs><g/><clipPath id="d08b0df0f9"><path d="M 91.984375 92.5 L 282.84375 92.5 L 282.84375 213.992188 L 91.984375 213.992188 Z M 91.984375 92.5 " clip-rule="nonzero"/></clipPath><clipPath id="54dc17042c"><path d="M 233.902344 262.660156 L 253.402344 262.660156 L 253.402344 282.160156 L 233.902344 282.160156 Z M 233.902344 262.660156 " clip-rule="nonzero"/></clipPath><clipPath id="d2f6a18768"><path d="M 121.367188 262.660156 L 140.867188 262.660156 L 140.867188 282.160156 L 121.367188 282.160156 Z M 121.367188 262.660156 " clip-rule="nonzero"/></clipPath></defs><g clip-path="url(#d08b0df0f9)"><path fill="#594a47" d="M 106.039062 182.402344 C 104.359375 185.558594 104.339844 190.203125 106.167969 193.277344 C 107.523438 189.703125 105.738281 188.441406 106.039062 182.402344 Z M 282.332031 197.910156 C 283.71875 190.167969 281.847656 179.488281 282.015625 173.238281 C 282.070312 171.230469 279.675781 161.925781 277.894531 156.851562 C 277.191406 156.105469 276.503906 155.339844 276.136719 154.652344 C 275.742188 153.921875 273.476562 152.199219 272.632812 152.238281 C 271.675781 152.277344 267.246094 150.808594 266.136719 150.445312 C 266.0625 150.421875 265.199219 150.027344 264.277344 149.714844 C 263.75 149.539062 263.074219 149.503906 262.859375 149.292969 C 262.460938 149.140625 262.546875 149.242188 262.207031 149.1875 C 261.996094 149.15625 261.78125 149.050781 261.761719 149.042969 C 261.652344 148.996094 262.15625 148.953125 262.160156 148.953125 C 262.601562 148.839844 262.367188 148.921875 262.621094 148.820312 C 262.691406 148.792969 262.902344 148.792969 263.039062 148.722656 C 263.078125 148.699219 263.554688 148.597656 264.054688 148.546875 C 265.082031 148.445312 266.152344 148.269531 263.257812 147.417969 C 262.105469 147.078125 261.285156 146.8125 260.523438 146.597656 C 257.425781 146.085938 254.328125 145.550781 251.230469 145.039062 C 250.230469 144.921875 248.832031 144.746094 248.097656 144.746094 C 247.800781 144.746094 246.292969 144.636719 246.234375 144.648438 C 244.898438 144.414062 243.710938 145.15625 242.578125 145.128906 C 239.984375 145.074219 237.675781 144.542969 234.585938 144.382812 C 233.050781 144.300781 231.554688 143.824219 230.265625 143.601562 C 228.316406 143.269531 226.863281 143.175781 226.6875 143.171875 C 226.214844 143.152344 228.558594 143.171875 231.222656 143.144531 C 234.210938 143.113281 237.078125 143.050781 237.195312 143.027344 C 237.492188 142.96875 240.089844 142.792969 240.394531 142.800781 C 241.25 142.8125 242.488281 142.484375 243.191406 142.480469 C 243.894531 142.476562 245.355469 142.132812 246.222656 142.132812 C 247.34375 142.132812 247.546875 142.121094 248.648438 141.96875 C 249.628906 141.828125 250.683594 142.160156 251.820312 141.789062 C 252.183594 141.671875 256.695312 141.367188 257.6875 141.367188 C 258.167969 141.191406 259.128906 141.445312 260.199219 141.328125 C 261.164062 141.222656 262.207031 140.742188 263.230469 140.742188 C 265.136719 140.75 266.835938 141.289062 267.113281 140.808594 C 267.613281 139.9375 268.664062 138.9375 267.027344 137.714844 C 267 137.695312 266.460938 137.3125 266.328125 136.664062 C 266.238281 136.222656 266.621094 135.605469 266.402344 135.101562 C 266.019531 134.195312 265.15625 133.367188 264.921875 132.996094 C 263.355469 130.859375 261.746094 128.707031 260.292969 126.792969 C 257.253906 122.78125 241.523438 108.527344 238.90625 107.503906 C 235.757812 104.117188 231.449219 104.363281 229.089844 102.609375 C 223.101562 98.15625 217.140625 97.636719 212.742188 96.378906 C 210.007812 95.601562 208.441406 95.136719 206.8125 94.714844 C 201.207031 93.261719 197.828125 92.699219 194.933594 92.546875 C 190.632812 92.316406 187.394531 92.988281 179.492188 92.988281 C 178.214844 92.988281 173.804688 93.316406 169.390625 94.136719 C 165.09375 94.9375 160.800781 96.226562 159.085938 96.714844 C 154.148438 98.136719 147.910156 100.914062 146.453125 101.679688 C 145.386719 102.25 144.4375 102.546875 143.449219 102.910156 C 140.761719 103.90625 141.113281 104.789062 141.125 105.640625 C 141.140625 106.503906 140.851562 107.328125 143.164062 107.402344 C 143.785156 107.417969 145.097656 107.945312 146.679688 107.945312 C 147.925781 107.945312 149.550781 108.242188 151.148438 108.242188 C 153.148438 108.242188 154.597656 108.023438 156.511719 108.246094 C 157.566406 108.371094 158.539062 108.425781 159.484375 108.457031 C 160.800781 108.511719 162.070312 108.527344 163.460938 108.648438 C 166.046875 108.882812 168.542969 109.574219 168.789062 109.574219 C 171.121094 109.574219 170.816406 109.996094 171.523438 110.0625 C 172.253906 110.527344 174.71875 110.6875 175.304688 110.449219 C 175.304688 110.4375 174.691406 110.902344 173.820312 110.902344 C 172.335938 110.902344 171.246094 110.703125 169.773438 111.042969 C 167.90625 111.472656 166.972656 110.207031 164.234375 111.449219 C 162.828125 112.085938 157.613281 111.1875 155.617188 111.84375 C 155.238281 111.96875 153.242188 111.960938 151.1875 111.925781 C 149.328125 111.894531 147.417969 111.839844 146.628906 111.839844 C 144.699219 111.839844 143.351562 112.246094 141.921875 112.546875 C 141.066406 112.730469 140.183594 112.871094 139.125 112.871094 C 138.320312 112.871094 137.542969 112.921875 136.714844 112.921875 C 136.574219 112.546875 132.582031 112.871094 132.480469 112.914062 C 132.441406 112.929688 132.40625 112.945312 132.371094 112.957031 C 131.730469 113.183594 131.09375 113.441406 130.417969 113.71875 C 129.65625 114.023438 128.847656 114.355469 127.9375 114.6875 C 127.199219 115.289062 125.988281 115.535156 125.3125 116.011719 C 123.15625 117.542969 121.929688 118.777344 121.703125 119.351562 C 121.511719 119.835938 116.527344 123.6875 113.070312 128.15625 C 111.945312 129.613281 112.078125 131.234375 111.386719 132.460938 C 110.382812 134.25 108.734375 135.496094 108.058594 136.519531 C 106.625 138.6875 105.859375 140.132812 109.625 140.367188 C 112.066406 140.527344 114.164062 140.359375 116.640625 140.472656 C 118.820312 140.574219 119.484375 141.488281 122.457031 141.441406 C 123.394531 141.527344 124.746094 141.5625 125.683594 141.648438 C 126.921875 141.761719 128.113281 142.101562 129.351562 142.21875 C 129.433594 142.246094 129.515625 142.273438 129.597656 142.304688 C 130.429688 142.652344 138.773438 142.972656 140.640625 143.390625 C 140.988281 143.46875 143.199219 143.023438 145.511719 143.074219 C 148.375 143.140625 151.449219 143.703125 151.992188 143.859375 C 148.925781 143.984375 135.941406 144.269531 133.992188 144.371094 C 131.777344 144.492188 129.136719 144.886719 126.902344 144.796875 C 126.007812 144.757812 123.710938 145.417969 121.492188 145.691406 C 119.765625 145.902344 118 145.714844 117.542969 145.847656 L 115.6875 146.035156 C 114.738281 146.035156 112.664062 146.4375 110.53125 146.621094 C 108.800781 146.769531 107.402344 146.753906 106.152344 146.710938 C 104.550781 146.652344 104.011719 147.0625 103.125 147.335938 C 102.507812 147.527344 101.855469 147.8125 101.4375 148.261719 C 100.554688 149.214844 99.792969 150.242188 99.304688 151.382812 C 97.839844 154.792969 96.808594 158.511719 95.320312 162.359375 C 93.886719 166.085938 93.027344 173.753906 92.269531 179.230469 C 91.578125 184.234375 92.332031 192.117188 92.554688 197.078125 C 92.867188 203.839844 93.746094 207.226562 94.46875 209.808594 C 95.207031 208.585938 95.957031 207.257812 96.367188 206.535156 C 96.457031 206.378906 96.527344 206.253906 96.582031 206.164062 C 96.410156 207.214844 95.5625 209.578125 94.925781 211.414062 L 94.945312 211.484375 C 95.261719 211.480469 95.574219 211.472656 95.882812 211.457031 C 96.566406 211.414062 97.234375 211.332031 97.886719 211.21875 C 97.890625 210.054688 97.6875 207.859375 97.667969 207.648438 C 97.667969 207.648438 97.492188 205.140625 97.46875 204.886719 C 97.433594 204.632812 97.410156 204.363281 97.378906 204.097656 C 97.359375 203.894531 97.335938 203.699219 97.308594 203.515625 C 97.472656 203.714844 97.675781 204.515625 97.75 204.789062 C 98.039062 205.644531 98.289062 206.511719 98.539062 207.382812 C 98.742188 208.152344 99.164062 209.679688 99.433594 210.886719 C 100.144531 210.714844 100.8125 210.515625 101.4375 210.324219 L 101.3125 206.242188 L 101.300781 205.804688 L 102.964844 209.84375 C 103.238281 209.757812 103.492188 209.679688 103.730469 209.613281 C 103.433594 207.339844 103.007812 205.097656 102.050781 203.125 C 101.933594 202.886719 101.8125 202.652344 101.679688 202.417969 C 103.183594 204.101562 104.117188 206.25 104.886719 208.515625 C 104.914062 208.417969 104.9375 208.324219 104.960938 208.226562 C 105.25 207.257812 105.550781 206.378906 106.050781 205.550781 C 106.25 205.222656 106.433594 204.972656 106.71875 204.757812 C 106.761719 204.707031 106.824219 204.664062 106.894531 204.632812 C 107.054688 204.5625 107.25 204.539062 107.386719 204.550781 C 107.320312 204.308594 107.253906 204.058594 107.222656 203.804688 C 107.046875 202.433594 107.023438 201.015625 106.894531 200.480469 C 106.714844 199.726562 106.585938 199.078125 106.445312 198.332031 C 106.320312 197.660156 106.140625 196.8125 106.089844 196.371094 C 106.027344 197.125 105.800781 197.503906 105.621094 197.972656 C 105.488281 198.316406 105.304688 198.574219 105.144531 198.859375 C 105.015625 199.085938 104.921875 199.34375 104.773438 199.535156 C 104.550781 199.824219 104.34375 200.121094 104.066406 200.351562 C 103.855469 200.523438 103.585938 200.640625 103.339844 200.789062 C 103.429688 200.289062 103.574219 199.796875 103.609375 199.371094 C 103.660156 198.710938 103.5625 198.160156 103.511719 197.636719 C 103.445312 196.972656 103.230469 196.457031 103.070312 195.933594 C 102.890625 195.339844 102.75 194.757812 102.558594 194.226562 C 102.4375 193.878906 102.402344 193.53125 102.3125 193.164062 C 102.210938 192.722656 102.066406 192.257812 102.078125 191.730469 C 102.085938 190.96875 102.242188 190.082031 102.636719 188.972656 C 103.324219 187.050781 103.96875 185.230469 104.234375 183.550781 C 104.464844 182.105469 104.480469 180.761719 104.511719 179.511719 C 104.523438 178.90625 104.863281 178.480469 104.90625 177.917969 C 104.957031 177.285156 105.070312 176.597656 105.179688 176.046875 C 105.609375 173.90625 106.15625 172.300781 107.800781 171.070312 C 109.089844 169.777344 110.902344 170.167969 113.363281 169.980469 C 114.527344 169.890625 115.914062 169.347656 117.410156 169.117188 C 119.273438 168.828125 120.105469 169.210938 121.820312 169.441406 C 122.871094 169.582031 124.328125 169.589844 124.503906 169.664062 C 124.574219 169.6875 127.089844 170.105469 129.84375 170.371094 C 132.59375 170.632812 135.582031 170.746094 136.289062 170.808594 C 139.570312 171.089844 143.046875 170.734375 146.40625 170.734375 C 147.34375 170.734375 150.875 170.964844 153.636719 171.40625 C 157.863281 172.078125 158.238281 173.765625 162.417969 175.054688 C 167.144531 176.507812 166.195312 180.5 167.0625 182.65625 C 167.375 183.074219 168.910156 186.566406 169.554688 188.113281 C 170.21875 189.707031 171.53125 193.414062 172.769531 194.335938 C 173.195312 194 173.183594 193.253906 173.335938 192.730469 C 173.445312 192.351562 173.675781 192.382812 174.046875 192.226562 C 174.382812 192.089844 174.542969 191.90625 174.875 191.9375 C 176.589844 192.105469 175.972656 193.511719 175.9375 194.664062 C 175.9375 194.785156 175.9375 194.90625 175.953125 195.023438 C 175.96875 195.152344 175.921875 195.410156 175.902344 195.613281 C 175.894531 195.710938 175.894531 195.929688 176.003906 196 C 176.957031 196.601562 176.511719 197.527344 177.410156 198.097656 C 177.734375 198.464844 178.164062 198.816406 178.257812 199.257812 C 178.46875 200.195312 178.339844 201.011719 177.675781 201.71875 C 177.148438 202.402344 177.339844 203.476562 177.523438 204.21875 C 177.78125 205.25 178.613281 206.050781 178.960938 206.921875 C 179.277344 207.726562 179.09375 209.058594 178.277344 209.484375 C 177.960938 209.652344 177.664062 209.742188 177.394531 209.78125 C 177.402344 210.675781 177.378906 211.570312 177.285156 212.3125 C 177.265625 212.488281 177.15625 213.09375 177.042969 213.5625 C 177.734375 213.671875 178.414062 213.765625 179.089844 213.832031 C 179.554688 213.085938 179.734375 211.933594 179.835938 211.035156 C 179.941406 209.871094 179.953125 208.683594 179.667969 207.5625 C 179.757812 207.683594 179.835938 207.8125 179.914062 207.945312 C 180.414062 208.832031 180.648438 209.945312 180.808594 211.003906 C 180.941406 212.023438 181.003906 212.992188 180.90625 213.96875 C 181.222656 213.984375 181.542969 213.992188 181.859375 213.992188 C 181.625 212.214844 181.878906 210.53125 182.53125 208.828125 L 183.722656 206.53125 L 183.832031 206.417969 L 183.753906 206.714844 L 183.144531 209.101562 C 183.011719 210.964844 182.929688 212.199219 183.757812 213.925781 C 184.289062 213.882812 184.816406 213.820312 185.332031 213.734375 C 185.527344 212.765625 185.601562 212.171875 185.652344 210.683594 C 185.691406 210.828125 185.734375 210.972656 185.777344 211.113281 C 186.042969 211.957031 186.351562 212.695312 186.628906 213.46875 C 187.203125 213.324219 187.769531 213.144531 188.324219 212.929688 C 188.464844 211.761719 188.726562 210.964844 188.765625 209.730469 L 188.804688 209.457031 C 188.8125 209.507812 188.855469 209.671875 188.878906 209.703125 C 188.890625 209.730469 188.898438 209.757812 188.910156 209.78125 C 189.355469 210.96875 189.652344 211.242188 189.96875 212.25 C 190.667969 211.957031 191.441406 211.648438 192.285156 211.371094 C 192.292969 211 192.257812 210.703125 192.027344 209.820312 C 192.097656 209.886719 192.160156 209.941406 192.222656 209.992188 C 192.800781 210.464844 193.164062 210.464844 193.613281 210.976562 C 194.089844 210.859375 194.589844 210.746094 195.105469 210.660156 C 195.035156 208.5 194.6875 206.941406 193.585938 204.015625 C 193.757812 204.324219 193.921875 204.617188 194.074219 204.894531 C 195.289062 207.09375 195.976562 208.476562 196.445312 210.492188 C 197.292969 210.421875 198.179688 210.414062 199.117188 210.5 C 199.210938 209.957031 199.269531 209.40625 199.324219 208.84375 C 199.40625 207.859375 199.449219 206.921875 199.449219 205.933594 C 199.410156 205.3125 199.414062 204.613281 199.269531 204.015625 C 199.347656 204.121094 199.425781 204.296875 199.5 204.5 C 199.664062 204.953125 199.800781 205.550781 199.847656 205.863281 C 200.074219 206.863281 200.214844 207.8125 200.324219 208.84375 C 200.382812 209.46875 200.425781 210.070312 200.449219 210.679688 C 200.78125 210.738281 201.121094 210.8125 201.46875 210.894531 C 201.773438 210.96875 202.085938 211.042969 202.40625 211.113281 C 202.542969 210.488281 202.652344 209.96875 202.644531 209.820312 C 202.894531 208.351562 202.984375 207.222656 202.671875 205.753906 C 202.769531 205.933594 202.855469 206.121094 202.933594 206.316406 C 203.382812 207.421875 203.566406 208.683594 203.636719 209.921875 C 203.664062 210.40625 203.671875 210.890625 203.675781 211.371094 L 204.15625 211.464844 C 204.617188 209.449219 205.042969 206.511719 205.507812 205.429688 C 205.53125 205.492188 205.546875 205.628906 205.558594 205.824219 C 205.625 206.867188 205.558594 209.554688 205.46875 211.6875 C 206.082031 211.785156 206.710938 211.875 207.355469 211.964844 C 207.515625 211.046875 207.679688 210.128906 207.863281 209.21875 C 207.878906 209.175781 207.914062 208.523438 207.914062 208.417969 C 207.917969 208.390625 207.890625 208.070312 207.882812 208.050781 C 207.828125 207.871094 207.742188 207.8125 207.628906 207.683594 C 207.535156 207.570312 207.484375 207.488281 207.425781 207.332031 C 207.378906 207.109375 207.34375 206.996094 207.328125 206.75 C 207.359375 206.855469 207.464844 207.128906 207.546875 207.210938 C 207.550781 207.214844 207.558594 207.222656 207.5625 207.222656 C 207.628906 207.316406 207.683594 207.359375 207.777344 207.40625 C 207.992188 207.503906 208.085938 207.496094 208.257812 207.734375 C 208.378906 207.886719 208.441406 208.046875 208.503906 208.246094 C 208.617188 208.550781 208.679688 208.84375 208.730469 209.171875 C 208.988281 210.140625 209.089844 211.167969 209.140625 212.191406 C 209.453125 212.226562 209.769531 212.261719 210.085938 212.296875 C 210.164062 212.070312 210.378906 211.867188 210.378906 211.867188 C 210.378906 211.867188 211.496094 210.328125 211.875 209.980469 C 211.957031 209.910156 212.03125 209.851562 212.097656 209.796875 C 212.253906 207.945312 212.34375 206.089844 212.214844 204.277344 C 212.28125 204.542969 212.34375 204.808594 212.402344 205.078125 C 212.65625 206.242188 212.824219 207.433594 212.953125 208.640625 C 213.011719 208.53125 213.050781 208.441406 213.050781 208.402344 C 213.050781 208.292969 213.816406 204.753906 213.375 203.652344 C 212.96875 202.636719 212.3125 202.273438 211.871094 201.035156 C 210.894531 200.863281 209.410156 200.453125 208.535156 199.515625 C 207.136719 198.023438 207.53125 198.601562 204.070312 196.015625 C 200.613281 193.425781 201.730469 192.714844 200.183594 190.464844 C 198.636719 188.210938 193.019531 184.617188 193.019531 184.617188 C 193.019531 184.617188 192.414062 185.53125 189.847656 185.851562 C 187.28125 186.171875 185.414062 184.984375 185.007812 184.785156 C 184.59375 184.585938 183.957031 184.4375 183.535156 184.710938 C 183.105469 184.984375 181.984375 184.742188 181.195312 184.679688 C 180.40625 184.617188 179.933594 183.6875 179.933594 183.6875 C 179.402344 183.902344 178.867188 183.75 178.691406 183.3125 C 178.511719 182.886719 178.402344 182.230469 178.34375 181.699219 C 178.25 180.875 178.34375 180.023438 179.859375 178.683594 C 181.375 177.34375 182.859375 173.109375 183.195312 171.984375 C 183.527344 170.859375 184.304688 170.5 185.035156 169.507812 C 185.761719 168.519531 186.476562 168.425781 186.660156 168.003906 C 186.839844 167.574219 187.460938 167.425781 187.460938 167.425781 C 187.765625 166.132812 185.554688 163.839844 184.765625 163.382812 C 186.277344 163.105469 188.445312 164.464844 189.386719 165.558594 C 189.386719 165.558594 189.972656 165.925781 190.386719 165.664062 C 190.640625 165.503906 191.066406 165.480469 191.351562 165.488281 C 191.671875 165.496094 191.652344 165.941406 191.597656 166.144531 C 192.808594 164.503906 190.125 162.339844 190.125 162.339844 C 190.125 162.339844 191.660156 162.84375 193.023438 164.105469 C 194.386719 165.371094 194.191406 167.257812 194.191406 167.257812 C 194.191406 167.257812 196.589844 167.316406 199.078125 165.976562 C 201.570312 164.636719 203.070312 164.378906 205.042969 164.4375 C 207.019531 164.503906 209.902344 165.902344 214.242188 166.511719 C 218.585938 167.121094 219.34375 167.515625 223.742188 167.878906 C 226.589844 168.117188 228.394531 168.109375 229.609375 168.175781 C 233.460938 168.382812 234.542969 169.117188 239.257812 168.457031 C 243.597656 167.851562 248.5625 168.640625 251.097656 168.425781 C 253.632812 168.214844 257.183594 167.820312 258.007812 167.851562 C 258.824219 167.878906 259.3125 167.945312 260.644531 167.726562 C 264.226562 167.144531 266.679688 168.707031 268.203125 170.871094 C 271.636719 175.734375 268.652344 181.734375 268.953125 187.199219 C 269.140625 190.628906 271.085938 196.507812 271.304688 197.289062 C 271.523438 198.078125 271.871094 198.421875 271.464844 200.8125 C 271.464844 200.8125 270.742188 201.628906 270.710938 202.855469 C 270.679688 204.082031 271.777344 205.226562 271.585938 206.15625 C 271.402344 207.070312 271.566406 207.75 271.0625 208.734375 L 271.425781 211.949219 C 272.0625 211.835938 272.683594 211.738281 273.28125 211.675781 C 273.253906 211.292969 273.21875 210.972656 273.1875 210.761719 C 273.0625 209.957031 272.992188 208.800781 272.703125 208.058594 C 272.640625 207.894531 272.390625 207.265625 272.277344 207.1875 C 272.097656 206.964844 271.941406 206.847656 271.695312 206.796875 C 271.828125 206.773438 272.042969 206.800781 272.210938 206.871094 C 272.285156 206.90625 272.347656 206.949219 272.394531 206.996094 C 272.675781 207.210938 272.859375 207.464844 273.058594 207.792969 C 273.558594 208.621094 273.859375 209.496094 274.148438 210.464844 C 274.171875 210.5625 274.195312 210.660156 274.21875 210.757812 C 274.992188 208.484375 275.925781 206.34375 277.429688 204.660156 C 277.296875 204.890625 277.175781 205.125 277.058594 205.367188 C 276.101562 207.339844 275.675781 209.578125 275.378906 211.855469 C 275.617188 211.921875 275.871094 212 276.140625 212.085938 L 277.808594 208.046875 L 277.792969 208.480469 L 277.671875 212.566406 C 278.242188 212.742188 278.851562 212.917969 279.488281 213.082031 C 280.609375 208.34375 281.324219 203.589844 282.179688 198.769531 Z M 107.386719 204.5625 C 107.152344 204.617188 107.007812 204.730469 106.832031 204.945312 C 106.71875 205.023438 106.46875 205.65625 106.40625 205.816406 C 106.113281 206.558594 106.046875 207.71875 105.921875 208.519531 C 105.886719 208.734375 105.855469 209.054688 105.828125 209.433594 C 106.425781 209.5 107.046875 209.59375 107.683594 209.707031 L 107.734375 209.253906 C 107.625 209.066406 107.496094 208.902344 107.382812 208.785156 C 107.132812 208 107.632812 207.195312 107.65625 207.144531 C 107.71875 206.957031 107.734375 206.265625 107.589844 205.378906 C 107.546875 205.121094 107.464844 204.847656 107.386719 204.5625 Z M 111.207031 206.628906 L 111.949219 208.664062 C 112.054688 208.777344 112.128906 208.890625 112.136719 209.046875 C 112.148438 209.460938 112.644531 209.84375 112.542969 210.289062 L 112.652344 210.59375 C 113.351562 210.6875 114.066406 210.753906 114.789062 210.78125 C 114.613281 209.386719 114.265625 207.410156 114.433594 206.707031 C 114.46875 206.753906 114.503906 206.8125 114.535156 206.871094 C 115.046875 207.742188 115.691406 209.695312 116.230469 210.789062 C 117.117188 210.78125 117.996094 210.765625 118.695312 210.75 C 118.378906 209.550781 118.003906 208.390625 117.628906 207.195312 C 117.714844 207.316406 117.804688 207.433594 117.898438 207.546875 C 118.726562 208.617188 119.582031 209.605469 120.347656 210.734375 C 120.671875 210.738281 121.015625 210.746094 121.382812 210.753906 C 121.578125 208.859375 121.820312 208.707031 121.679688 207.539062 C 120.984375 206.847656 120.203125 206.085938 119.839844 205.515625 C 119.578125 205.113281 119.320312 204.816406 118.984375 204.207031 C 118.667969 203.636719 117.679688 201.886719 116.785156 201.144531 C 115.410156 200.003906 114.597656 197.933594 114.765625 197.492188 C 113.753906 198.335938 112.625 200.132812 112.613281 200.144531 C 112.472656 200.300781 112.015625 201.5625 111.714844 202.71875 C 111.507812 203.515625 111.421875 204.28125 111.378906 204.550781 C 111.269531 205.277344 111.222656 206.070312 111.207031 206.628906 Z M 122.992188 209 C 123.039062 209.417969 123.082031 209.992188 123.132812 210.800781 L 123.183594 210.800781 C 123.3125 210.472656 123.4375 210.183594 123.558594 209.925781 C 123.398438 209.613281 123.191406 209.277344 122.992188 209 Z M 125.269531 207.488281 C 125.542969 207.167969 125.851562 206.804688 126.207031 206.351562 C 126.117188 206.554688 126.039062 206.746094 125.960938 206.921875 C 125.800781 207.285156 125.675781 207.59375 125.574219 207.863281 C 125.707031 208.03125 125.824219 208.179688 125.890625 208.265625 C 126.152344 208.609375 126.25 208.789062 126.480469 209.109375 C 126.625 209.3125 127.019531 209.667969 127.394531 209.910156 L 127.464844 209.953125 C 127.539062 209.324219 127.519531 208.710938 127.429688 208 C 127.234375 206.78125 126.910156 205.890625 126.332031 204.890625 C 126.460938 204.996094 126.582031 205.105469 126.699219 205.214844 C 127.382812 205.863281 127.867188 206.574219 128.34375 207.558594 C 128.75 208.46875 128.988281 209.289062 129.097656 210.207031 C 129.316406 208.890625 129.628906 207.058594 129.757812 206.816406 C 129.804688 206.726562 129.890625 206.089844 129.914062 205.941406 C 129.9375 206.058594 129.96875 206.203125 130 206.347656 C 130.035156 206.53125 130.070312 206.714844 130.078125 206.863281 C 130.160156 208.152344 130.507812 209.601562 130.765625 210.921875 C 131.050781 210.917969 131.324219 210.910156 131.589844 210.894531 C 131.460938 209.171875 131.183594 208.007812 130.664062 206.136719 C 130.757812 206.296875 130.851562 206.453125 130.949219 206.601562 C 131.867188 208.0625 132.675781 209.039062 133.324219 210.75 C 134.054688 210.652344 134.746094 210.550781 135.40625 210.449219 C 135.332031 210.066406 135.261719 209.75 135.246094 209.714844 C 135.03125 208.878906 134.792969 208.410156 134.25 207.855469 C 134.355469 207.882812 134.46875 207.917969 134.578125 207.960938 C 135.121094 208.167969 135.664062 208.527344 136.066406 209.023438 C 136.164062 209.144531 136.261719 209.261719 136.351562 209.386719 C 136.84375 208.332031 137.519531 207.289062 138.160156 206.660156 L 138.183594 206.640625 L 138.246094 206.546875 L 138.226562 206.667969 L 138.21875 206.71875 C 138.207031 206.765625 138.195312 206.8125 138.183594 206.863281 C 138.007812 207.628906 137.6875 209.050781 137.660156 210.089844 C 138.449219 209.960938 139.203125 209.835938 139.9375 209.714844 L 140.085938 208.679688 C 140.09375 208.570312 140.070312 207.90625 140.03125 207.804688 C 139.84375 207.28125 139.558594 207.015625 139.363281 206.511719 C 139.433594 206.589844 139.519531 206.660156 139.613281 206.71875 C 139.957031 206.9375 140.386719 207.058594 140.550781 207.300781 C 140.859375 207.59375 141.015625 207.9375 141.167969 208.382812 C 141.285156 208.636719 141.378906 208.890625 141.453125 209.152344 C 141.75 208.160156 141.886719 207.394531 142.472656 206.226562 C 142.84375 205.566406 143.132812 205.222656 143.597656 204.679688 C 143.542969 204.816406 143.488281 204.960938 143.4375 205.113281 C 143.3125 205.5 143.195312 205.929688 143.121094 206.328125 C 143.152344 206.375 143.183594 206.417969 143.207031 206.460938 C 144.160156 207.359375 144.496094 207.628906 145.070312 208.59375 C 145.730469 207.289062 146.664062 205.242188 147.398438 204.566406 C 147.402344 204.550781 147.410156 204.53125 147.417969 204.515625 C 147.425781 204.460938 147.433594 204.410156 147.445312 204.355469 C 147.453125 204.363281 147.457031 204.371094 147.460938 204.382812 C 147.480469 204.414062 147.484375 204.453125 147.484375 204.5 C 147.460938 204.515625 147.4375 204.535156 147.414062 204.554688 C 147.410156 204.554688 147.410156 204.558594 147.410156 204.558594 C 147.410156 204.566406 147.410156 204.574219 147.40625 204.582031 C 147.175781 205.980469 146.894531 207.441406 146.691406 208.871094 C 147.054688 208.84375 147.429688 208.820312 147.816406 208.800781 C 147.84375 208.550781 147.875 208.304688 147.882812 208.085938 C 147.890625 207.914062 147.917969 207.351562 147.859375 207.214844 C 147.789062 206.855469 147.6875 206.625 147.480469 206.367188 L 147.257812 206.082031 C 147.28125 206.0625 147.394531 206.085938 147.476562 206.113281 C 147.527344 206.125 147.5625 206.140625 147.574219 206.148438 C 147.9375 206.261719 148.175781 206.421875 148.460938 206.734375 C 148.714844 207.058594 148.867188 207.355469 149.039062 207.757812 C 149.074219 207.8125 149.160156 208.121094 149.261719 208.449219 C 149.648438 207.398438 150.078125 206.4375 150.570312 205.289062 C 150.550781 205.457031 150.535156 205.625 150.519531 205.789062 C 150.429688 206.816406 150.453125 207.753906 150.488281 208.707031 C 150.929688 208.699219 151.382812 208.699219 151.855469 208.699219 C 152 208.699219 152.152344 208.699219 152.300781 208.703125 C 152.300781 208.585938 152.296875 208.472656 152.292969 208.359375 C 152.230469 207.792969 152.121094 207.367188 151.925781 206.820312 C 151.425781 205.542969 150.726562 204.507812 150.078125 203.355469 C 150.1875 203.476562 150.328125 203.609375 150.484375 203.765625 L 150.53125 203.808594 C 150.292969 203.304688 150.261719 202.710938 150.277344 202.117188 C 150.339844 199.828125 150.046875 199.890625 149 197.90625 C 147.523438 195.101562 141.914062 197.148438 139.375 197.304688 C 137.652344 197.410156 136.183594 197.417969 134.457031 197.402344 C 132.703125 197.382812 131.414062 197.847656 130.140625 197.839844 C 128.890625 197.828125 128.445312 197.449219 127.867188 197.070312 C 127.203125 196.636719 126.449219 196.164062 125.496094 195.503906 C 123.394531 194.042969 122.277344 195.425781 122.363281 197.417969 C 122.429688 198.96875 122.945312 200.402344 123.03125 201.496094 C 123.28125 204.582031 123.558594 204.320312 124.863281 207.035156 C 124.945312 207.105469 125.097656 207.28125 125.269531 207.488281 Z M 155.332031 204.574219 C 155.597656 206.085938 155.785156 207.589844 156.082031 208.980469 C 156.449219 209.03125 156.820312 209.082031 157.1875 209.132812 C 157.164062 208.640625 157.140625 208.183594 157.125 207.835938 C 157.078125 206.933594 157.015625 206.050781 156.917969 205.160156 C 156.816406 204.621094 156.757812 203.996094 156.550781 203.5 C 156.644531 203.585938 156.742188 203.734375 156.835938 203.914062 C 157.027344 204.277344 157.199219 204.753906 157.277344 205.023438 C 157.589844 205.875 157.828125 206.722656 158.058594 207.613281 C 158.191406 208.179688 158.324219 208.757812 158.453125 209.34375 C 159.644531 209.550781 160.84375 209.804688 162.046875 210.078125 L 162.046875 208.148438 L 162.191406 208.464844 L 163.042969 210.3125 C 163.472656 210.414062 163.902344 210.515625 164.332031 210.625 C 164.746094 209.398438 165.097656 208.847656 166.039062 207.039062 L 166.042969 207.035156 L 166.082031 206.957031 L 166.066406 207.058594 C 166.03125 207.210938 166 207.359375 165.96875 207.5 C 165.675781 208.933594 165.6875 209.859375 165.691406 210.964844 C 166.386719 211.140625 167.082031 211.320312 167.773438 211.5 L 168.007812 209.878906 L 168.113281 210.148438 L 168.753906 211.746094 C 169.558594 211.953125 170.367188 212.15625 171.167969 212.351562 C 171.394531 211.328125 171.617188 209.90625 171.730469 209.503906 C 171.753906 209.5625 171.777344 209.648438 171.8125 209.761719 C 171.980469 210.351562 172.253906 211.625 172.449219 212.65625 C 173.351562 212.863281 174.242188 213.058594 175.125 213.230469 L 175.121094 213.222656 L 175.128906 213.230469 L 175.191406 213.238281 C 175.292969 213.207031 175.464844 213.023438 175.488281 212.980469 C 175.765625 212.648438 175.953125 212.238281 176.125 211.8125 C 176.410156 211.15625 176.628906 210.488281 176.808594 209.800781 C 176.3125 209.757812 176.003906 209.582031 175.996094 209.589844 C 175.222656 210.234375 173.945312 210.03125 173.585938 209.65625 C 173.140625 209.195312 173.253906 208.449219 172.492188 208.578125 C 171.929688 208.675781 171.703125 208.511719 171.363281 208.113281 C 170.972656 207.65625 170.222656 207.09375 169.90625 207.050781 C 168.898438 206.902344 168.625 205.890625 168.070312 205.300781 C 167.582031 204.78125 167.492188 204.4375 167.296875 204.203125 C 166.738281 203.535156 167.023438 202.546875 166.882812 202.511719 C 166.890625 202.433594 165.25 201.707031 165.289062 200.925781 C 165.316406 200.292969 164.171875 200.503906 164.003906 200.585938 C 163.191406 200.988281 162.832031 201.410156 161.796875 200.898438 C 161.222656 200.613281 160.214844 200.054688 159.691406 200.316406 C 158.683594 200.8125 157.910156 200.53125 157.246094 200.128906 C 155.980469 199.359375 155.925781 199.550781 155.929688 200.707031 C 155.9375 201.964844 155.808594 203.34375 155.347656 204.542969 Z M 213.78125 212.648438 C 214.34375 212.695312 214.90625 212.738281 215.472656 212.777344 C 215.65625 210.941406 215.636719 210.269531 215.546875 209.699219 C 215.535156 209.738281 215.527344 209.78125 215.519531 209.832031 C 215.425781 210.421875 215.535156 210.308594 215.558594 211.007812 C 215.570312 211.585938 214.785156 212.234375 213.78125 212.648438 Z M 216.257812 208.539062 C 216.5 208.828125 216.710938 209.089844 216.875 209.605469 L 216.890625 209.519531 C 217.109375 208.382812 217.074219 208.347656 217 207.539062 C 216.816406 205.566406 216.738281 205.8125 215.976562 204.3125 C 215.976562 204.3125 216.773438 207.179688 216.257812 208.539062 Z M 219.460938 213.035156 L 219.964844 213.066406 C 220.453125 210.507812 220.710938 210.40625 222.191406 206.871094 C 222.109375 207.195312 222.035156 207.496094 221.972656 207.78125 C 221.371094 210.414062 221.472656 211.253906 221.507812 213.144531 C 222.296875 213.1875 223.082031 213.222656 223.859375 213.257812 C 224.03125 212.257812 224.15625 211.320312 224.273438 210.183594 C 224.371094 209.289062 224.457031 208.445312 224.480469 207.542969 C 224.480469 207.324219 224.445312 206.878906 224.394531 206.664062 C 224.386719 206.625 224.328125 206.4375 224.304688 206.410156 C 224.253906 206.359375 224.261719 206.320312 224.183594 206.285156 C 224.226562 206.28125 224.3125 206.3125 224.34375 206.351562 C 224.398438 206.421875 224.484375 206.488281 224.523438 206.589844 C 224.527344 206.597656 224.535156 206.613281 224.539062 206.625 C 224.679688 206.882812 224.757812 207.175781 224.828125 207.476562 C 225.058594 208.367188 225.160156 209.28125 225.242188 210.210938 C 225.257812 210.230469 225.324219 212.054688 225.410156 213.324219 L 226.246094 213.359375 C 226.570312 211.171875 226.832031 209.546875 226.957031 206.695312 C 226.988281 207.027344 227.023438 207.359375 227.058594 207.683594 C 227.277344 209.628906 227.5625 211.488281 227.75 213.417969 L 229.425781 213.480469 C 229.875 212.351562 230.292969 210.808594 230.230469 209.539062 C 230.203125 208.066406 229.972656 206.613281 229.824219 205.15625 C 229.824219 205.15625 229.800781 204.855469 229.800781 204.824219 C 229.824219 204.910156 229.875 205.054688 229.894531 205.136719 C 229.933594 205.265625 229.96875 205.394531 230.011719 205.519531 C 230.414062 206.804688 230.886719 208.039062 231.214844 209.347656 C 231.578125 210.917969 231.613281 212.097656 231.394531 213.550781 C 232.222656 213.582031 233.015625 213.613281 233.765625 213.640625 C 234.449219 213.667969 235.113281 213.667969 235.757812 213.648438 C 235.132812 210.109375 234.605469 206.527344 233.667969 203.101562 C 233.792969 203.367188 233.917969 203.636719 234.035156 203.902344 C 235.414062 206.992188 236.460938 210.292969 237.625 213.519531 C 237.863281 213.496094 238.097656 213.46875 238.332031 213.4375 C 238.992188 211.816406 239.703125 209.132812 240.140625 207.976562 C 240.132812 208.136719 240.128906 208.300781 240.125 208.46875 C 240.074219 209.910156 239.988281 211.625 239.832031 213.210938 C 241.140625 212.988281 242.386719 212.707031 243.625 212.425781 C 243.695312 211.296875 243.726562 210.128906 243.628906 209.351562 C 243.570312 208.375 243.472656 207.554688 243.21875 206.625 C 242.953125 205.785156 242.675781 205.199219 242.097656 204.652344 C 242.308594 204.769531 242.496094 204.898438 242.664062 205.042969 C 243.046875 205.378906 243.335938 205.804688 243.632812 206.359375 C 244.09375 207.265625 244.351562 208.101562 244.59375 209.132812 C 244.816406 210.171875 244.960938 211.132812 245.082031 212.101562 C 246.136719 211.867188 247.199219 211.660156 248.300781 211.503906 L 244.910156 204.527344 L 245.472656 205.320312 L 249.726562 211.335938 C 250.3125 211.285156 250.910156 211.25 251.527344 211.242188 C 252.21875 209.699219 252.347656 209.773438 252.863281 207.480469 C 252.871094 207.664062 252.878906 207.84375 252.890625 208.011719 C 252.972656 209.269531 253.179688 210.140625 253.21875 211.277344 C 253.707031 211.308594 254.210938 211.355469 254.726562 211.417969 C 254.835938 210.171875 254.824219 208.742188 254.625 207.773438 C 254.359375 205.882812 253.941406 204.25 253.441406 202.449219 C 253.5625 202.699219 253.683594 202.945312 253.800781 203.183594 C 254.46875 204.566406 255.058594 205.886719 255.578125 207.425781 C 256.058594 208.945312 256.34375 210.214844 256.4375 211.6875 L 256.625 211.722656 C 257.191406 210.636719 257.761719 208.597656 258.015625 206.941406 C 257.976562 206.734375 257.929688 206.523438 257.871094 206.300781 C 257.9375 206.429688 257.996094 206.546875 258.058594 206.667969 C 258.160156 205.902344 258.1875 205.242188 258.109375 204.832031 C 257.804688 203.3125 257.015625 203.738281 256.527344 198.503906 C 256.328125 196.382812 256.113281 194.933594 255.929688 193.964844 C 255.644531 192.507812 254.777344 192.574219 253.566406 193.339844 C 252.574219 193.972656 251.289062 194.777344 250 195.554688 C 247.269531 197.191406 244.113281 197.984375 243.125 198.914062 C 242.140625 199.839844 241.957031 200.28125 241.242188 200.890625 C 240.53125 201.5 240.015625 200.800781 240.015625 200.800781 C 240.015625 200.800781 239.90625 200.574219 240.210938 200.144531 C 240.515625 199.71875 240.347656 199.308594 240.347656 199.308594 C 240.347656 199.308594 240.46875 199.554688 233.304688 197.605469 C 230.859375 196.9375 228.859375 196.867188 226.625 197.019531 C 221.972656 197.339844 221.722656 199.28125 220.644531 203.191406 C 220.09375 205.175781 220.09375 204.773438 220.019531 205.578125 C 219.945312 206.386719 220.53125 209.921875 220.421875 210.785156 C 220.3125 211.648438 220.074219 211.464844 219.835938 212.070312 C 219.6875 212.445312 219.527344 212.785156 219.460938 213.035156 Z M 259.566406 212.472656 L 259.582031 212.476562 L 259.644531 212.207031 Z M 261.140625 207.921875 C 261.804688 206.734375 262.503906 205.972656 263.414062 205.292969 C 263.234375 204.09375 263.054688 203.28125 263.054688 203.28125 C 263.054688 203.28125 263.207031 203.339844 262.75 204.164062 C 262.449219 204.710938 261.707031 206.5 261.140625 207.921875 Z M 263.460938 205.609375 C 262.679688 206.511719 262.148438 207.488281 261.734375 208.972656 C 261.4375 210.242188 261.308594 211.542969 261.230469 212.851562 C 261.355469 212.871094 261.480469 212.890625 261.605469 212.90625 L 262.09375 210.886719 C 262.246094 210.253906 262.402344 209.617188 262.601562 209.003906 C 262.664062 208.777344 262.730469 208.554688 262.816406 208.339844 C 262.84375 208.304688 262.875 208.171875 262.910156 208.125 C 262.925781 208.113281 262.9375 208.066406 262.957031 208.050781 C 262.976562 208.03125 262.984375 208.011719 263.011719 207.992188 L 262.972656 208.0625 L 262.953125 208.152344 L 262.933594 208.382812 C 262.933594 208.410156 262.933594 208.441406 262.933594 208.472656 C 262.933594 208.664062 262.945312 208.894531 262.953125 209.078125 L 263.109375 211.035156 C 263.132812 211.660156 263.128906 212.371094 263.222656 213.027344 L 263.316406 213.03125 L 263.363281 212.949219 C 264.027344 210.921875 263.765625 207.761719 263.460938 205.609375 Z M 266.667969 212.253906 L 267.933594 208.785156 C 267.75 208.425781 267.621094 207.96875 267.652344 207.519531 C 267.679688 207.148438 267.6875 206.777344 267.707031 206.410156 C 267.730469 205.945312 267.769531 205.480469 267.875 205.007812 C 268.058594 204.160156 268.019531 203.425781 267.902344 203.042969 C 267.785156 202.660156 268.375 202.160156 268.265625 201.472656 C 268.152344 200.78125 267.792969 199.976562 267.792969 199.976562 C 267.792969 199.976562 267.449219 196.332031 267.699219 194.886719 C 267.949219 193.441406 268.011719 192.683594 267.949219 191.429688 C 267.910156 190.640625 267.832031 188.210938 267.78125 186.511719 C 267.484375 188.015625 266.796875 189.128906 266.261719 189.882812 C 265.332031 191.183594 265.269531 192.710938 265.433594 193.890625 C 265.6875 195.714844 266.816406 197.589844 267.519531 199.277344 C 268.246094 201.019531 267.570312 204.542969 267.136719 207.597656 C 266.863281 209.550781 266.738281 211.324219 266.667969 212.253906 Z M 268.59375 209.496094 L 268.121094 212.574219 C 268.695312 212.472656 269.261719 212.359375 269.820312 212.253906 L 270.210938 210.003906 C 270.058594 210.070312 269.902344 210.027344 269.753906 209.789062 C 269.539062 209.433594 268.957031 209.570312 268.59375 209.496094 Z M 143.054688 209.246094 L 143.589844 209.175781 C 143.507812 208.28125 143.480469 207.605469 143.082031 206.5625 C 143.078125 206.574219 143.078125 206.585938 143.074219 206.597656 C 142.886719 207.65625 142.980469 208.390625 143.054688 209.246094 Z M 147.484375 204.5 C 147.480469 204.558594 147.464844 204.632812 147.457031 204.703125 L 147.585938 204.425781 C 147.554688 204.445312 147.519531 204.46875 147.484375 204.5 " fill-opacity="1" fill-rule="evenodd"/></g><g fill="#594a47" fill-opacity="1"><g transform="translate(77.355468, 250.762558)"><g><path d="M 10.855469 0.464844 C 15.476562 0.464844 17.925781 -2.109375 19.691406 -4.992188 L 19.195312 -5.519531 C 17.210938 -4.21875 15.878906 -3.753906 14.203125 -3.753906 C 10.296875 -3.753906 8.03125 -7.320312 8.03125 -12.621094 C 8.03125 -17.058594 9.179688 -20.59375 12.4375 -20.59375 C 14.730469 -20.59375 16.53125 -18.050781 17.613281 -13.988281 L 18.296875 -13.988281 L 18.886719 -20.3125 C 17.148438 -21.152344 14.980469 -21.554688 12.4375 -21.554688 C 5.335938 -21.554688 1.273438 -16.902344 1.273438 -10.046875 C 1.273438 -3.441406 5.394531 0.464844 10.855469 0.464844 Z M 10.855469 0.464844 "/></g></g></g><g fill="#594a47" fill-opacity="1"><g transform="translate(98.130671, 250.762558)"><g><path d="M 0 0 L 7.195312 0 L 7.195312 -0.683594 C 4.09375 -0.683594 3.628906 -2.015625 5.273438 -5.921875 L 5.675781 -6.855469 L 12.03125 -6.855469 L 12.996094 -4.339844 C 13.957031 -1.859375 14.078125 -0.683594 12.496094 -0.683594 L 12.496094 0 L 21.894531 0 L 21.894531 -0.683594 C 20.683594 -0.683594 20.28125 -1.054688 19.878906 -2.015625 L 11.910156 -21.554688 L 10.542969 -21.554688 L 3.257812 -3.875 C 2.355469 -1.707031 1.332031 -0.683594 0 -0.683594 Z M 6.109375 -7.90625 L 8.992188 -14.730469 L 11.628906 -7.90625 Z M 6.109375 -7.90625 "/></g></g></g><g fill="#594a47" fill-opacity="1"><g transform="translate(120.33223, 250.762558)"><g><path d="M 5.304688 0 L 14.855469 0 L 14.855469 -0.683594 C 13.519531 -0.804688 13.179688 -1.054688 13.179688 -1.921875 L 13.179688 -20.003906 C 15.476562 -19.632812 17.398438 -17.863281 18.980469 -14.792969 L 19.660156 -14.792969 L 18.730469 -21.210938 C 18.699219 -21.398438 18.578125 -21.492188 18.390625 -21.460938 C 17.523438 -21.273438 15.382812 -21.089844 14.484375 -21.089844 L 5.675781 -21.089844 C 4.777344 -21.089844 2.636719 -21.273438 1.769531 -21.460938 C 1.582031 -21.492188 1.457031 -21.398438 1.425781 -21.210938 L 0.496094 -14.792969 L 1.179688 -14.792969 C 2.761719 -17.863281 4.683594 -19.632812 6.976562 -20.003906 L 6.976562 -1.921875 C 6.976562 -1.054688 6.636719 -0.804688 5.304688 -0.683594 Z M 5.304688 0 "/></g></g></g><g fill="#594a47" fill-opacity="1"><g transform="translate(140.487277, 250.762558)"><g><path d="M 5.304688 0 L 14.855469 0 L 14.855469 -0.683594 C 13.519531 -0.804688 13.179688 -1.054688 13.179688 -1.921875 L 13.179688 -20.003906 C 15.476562 -19.632812 17.398438 -17.863281 18.980469 -14.792969 L 19.660156 -14.792969 L 18.730469 -21.210938 C 18.699219 -21.398438 18.578125 -21.492188 18.390625 -21.460938 C 17.523438 -21.273438 15.382812 -21.089844 14.484375 -21.089844 L 5.675781 -21.089844 C 4.777344 -21.089844 2.636719 -21.273438 1.769531 -21.460938 C 1.582031 -21.492188 1.457031 -21.398438 1.425781 -21.210938 L 0.496094 -14.792969 L 1.179688 -14.792969 C 2.761719 -17.863281 4.683594 -19.632812 6.976562 -20.003906 L 6.976562 -1.921875 C 6.976562 -1.054688 6.636719 -0.804688 5.304688 -0.683594 Z M 5.304688 0 "/></g></g></g><g fill="#594a47" fill-opacity="1"><g transform="translate(160.642324, 250.762558)"><g><path d="M 1.085938 0 L 16.621094 0 L 17.554688 -6.296875 L 16.871094 -6.296875 C 15.507812 -3.722656 13.460938 -1.023438 10.203125 -1.023438 L 8.960938 -1.023438 L 8.960938 -19.164062 C 8.960938 -20.035156 9.304688 -20.28125 10.636719 -20.40625 L 10.636719 -21.089844 L 1.085938 -21.089844 L 1.085938 -20.40625 C 2.417969 -20.28125 2.761719 -20.035156 2.761719 -19.164062 L 2.761719 -1.921875 C 2.761719 -1.054688 2.355469 -0.835938 1.085938 -0.683594 Z M 1.085938 0 "/></g></g></g><g fill="#594a47" fill-opacity="1"><g transform="translate(179.122952, 250.762558)"><g><path d="M 1.085938 0 L 18.082031 0 L 19.011719 -6.296875 L 18.328125 -6.296875 C 16.964844 -3.722656 14.917969 -1.023438 11.660156 -1.023438 L 8.960938 -1.023438 L 8.960938 -11.503906 L 9.398438 -11.503906 C 11.691406 -11.503906 13.988281 -11.039062 13.988281 -9.054688 L 14.667969 -9.054688 L 14.667969 -14.949219 L 13.988281 -14.949219 C 13.988281 -13.148438 11.722656 -12.527344 9.398438 -12.527344 L 8.960938 -12.527344 L 8.960938 -20.066406 L 10.886719 -20.066406 C 14.140625 -20.066406 16.1875 -17.367188 17.554688 -14.792969 L 18.234375 -14.792969 L 17.304688 -21.089844 L 1.085938 -21.089844 L 1.085938 -20.40625 C 2.355469 -20.25 2.761719 -20.035156 2.761719 -19.164062 L 2.761719 -1.921875 C 2.761719 -1.054688 2.355469 -0.835938 1.085938 -0.683594 Z M 1.085938 0 "/></g></g></g><g fill="#594a47" fill-opacity="1"><g transform="translate(199.371029, 250.762558)"><g/></g></g><g fill="#594a47" fill-opacity="1"><g transform="translate(206.161735, 250.762558)"><g><path d="M 1.085938 0 L 10.636719 0 L 10.636719 -0.683594 C 9.304688 -0.804688 8.960938 -1.054688 8.960938 -1.921875 L 8.992188 -10.265625 L 9.429688 -10.265625 C 12.03125 -10.265625 12.996094 -9.582031 14.296875 -6.886719 L 14.980469 -6.886719 L 14.980469 -14.636719 L 14.296875 -14.636719 C 13.023438 -12.15625 12.0625 -11.289062 9.429688 -11.289062 L 8.992188 -11.289062 L 8.992188 -20.066406 L 10.886719 -20.066406 C 14.140625 -20.066406 16.1875 -17.367188 17.554688 -14.792969 L 18.234375 -14.792969 L 17.304688 -21.089844 L 1.085938 -21.089844 L 1.085938 -20.40625 C 2.355469 -20.25 2.761719 -20.035156 2.761719 -19.164062 L 2.761719 -1.921875 C 2.761719 -1.054688 2.417969 -0.804688 1.085938 -0.683594 Z M 1.085938 0 "/></g></g></g><g fill="#594a47" fill-opacity="1"><g transform="translate(224.983454, 250.762558)"><g><path d="M 0 0 L 7.195312 0 L 7.195312 -0.683594 C 4.09375 -0.683594 3.628906 -2.015625 5.273438 -5.921875 L 5.675781 -6.855469 L 12.03125 -6.855469 L 12.996094 -4.339844 C 13.957031 -1.859375 14.078125 -0.683594 12.496094 -0.683594 L 12.496094 0 L 21.894531 0 L 21.894531 -0.683594 C 20.683594 -0.683594 20.28125 -1.054688 19.878906 -2.015625 L 11.910156 -21.554688 L 10.542969 -21.554688 L 3.257812 -3.875 C 2.355469 -1.707031 1.332031 -0.683594 0 -0.683594 Z M 6.109375 -7.90625 L 8.992188 -14.730469 L 11.628906 -7.90625 Z M 6.109375 -7.90625 "/></g></g></g><g fill="#594a47" fill-opacity="1"><g transform="translate(247.185013, 250.762558)"><g><path d="M 1.085938 0 L 10.636719 0 L 10.636719 -0.683594 C 9.304688 -0.804688 8.960938 -1.054688 8.960938 -1.921875 L 8.960938 -9.210938 L 10.390625 -9.367188 L 13.832031 -1.921875 C 14.234375 -1.054688 13.832031 -0.804688 12.496094 -0.683594 L 12.496094 0 L 21.800781 0 L 21.800781 -0.683594 C 21.058594 -0.746094 20.5 -1.210938 20.128906 -1.921875 L 15.476562 -10.886719 C 17.988281 -11.753906 19.632812 -13.273438 19.632812 -15.910156 C 19.632812 -19.722656 16.34375 -21.089844 11.628906 -21.089844 L 1.085938 -21.089844 L 1.085938 -20.40625 C 2.355469 -20.25 2.761719 -20.035156 2.761719 -19.164062 L 2.761719 -1.921875 C 2.761719 -1.054688 2.417969 -0.804688 1.085938 -0.683594 Z M 8.960938 -10.265625 L 8.960938 -20.066406 L 9.800781 -20.066406 C 12.0625 -20.066406 13.675781 -18.980469 13.644531 -15.351562 C 13.613281 -12.3125 11.941406 -10.824219 9.984375 -10.453125 Z M 8.960938 -10.265625 "/></g></g></g><g fill="#594a47" fill-opacity="1"><g transform="translate(269.169524, 250.762558)"><g><path d="M 10.824219 0.09375 L 12.808594 0.09375 L 19.507812 -18.421875 L 19.507812 -1.921875 C 19.507812 -1.054688 19.164062 -0.804688 17.832031 -0.683594 L 17.832031 0 L 27.382812 0 L 27.382812 -0.683594 C 26.050781 -0.804688 25.710938 -1.054688 25.710938 -1.921875 L 25.710938 -19.164062 C 25.710938 -20.035156 26.113281 -20.25 27.382812 -20.40625 L 27.382812 -21.089844 L 19.257812 -21.089844 L 14.484375 -7.816406 L 9.707031 -21.089844 L 1.242188 -21.089844 L 1.242188 -20.40625 C 2.511719 -20.25 2.914062 -20.035156 2.914062 -19.164062 L 2.914062 -4.15625 C 2.914062 -1.828125 2.296875 -0.683594 0.339844 -0.683594 L 0.339844 0 L 7.164062 0 L 7.164062 -0.683594 C 4.777344 -0.683594 4.28125 -2.203125 4.21875 -5.023438 C 4.15625 -9.023438 4.0625 -13.800781 4 -18.609375 Z M 10.824219 0.09375 "/></g></g></g><g clip-path="url(#54dc17042c)"><path fill="#594a47" d="M 243.652344 262.660156 C 243.652344 268.046875 239.289062 272.410156 233.902344 272.410156 C 239.289062 272.410156 243.652344 276.777344 243.652344 282.160156 C 243.652344 276.777344 248.019531 272.410156 253.402344 272.410156 C 248.019531 272.410156 243.652344 268.046875 243.652344 262.660156 Z M 243.652344 262.660156 " fill-opacity="1" fill-rule="nonzero"/></g><g clip-path="url(#d2f6a18768)"><path fill="#594a47" d="M 131.117188 262.660156 C 131.117188 268.046875 126.75 272.410156 121.367188 272.410156 C 126.75 272.410156 131.117188 276.777344 131.117188 282.160156 C 131.117188 276.777344 135.480469 272.410156 140.867188 272.410156 C 135.480469 272.410156 131.117188 268.046875 131.117188 262.660156 Z M 131.117188 262.660156 " fill-opacity="1" fill-rule="nonzero"/></g></svg>